<svg width="77" height="47" viewBox="0 0 77 47" fill="none" xmlns="http://www.w3.org/2000/svg">
<rect x="31.7273" y="10.909" width="2.72727" height="2.72727" transform="rotate(90 31.7273 10.909)" fill="#69DB57"/>
<rect x="34.4546" y="19.091" width="2.72727" height="2.72727" transform="rotate(90 34.4546 19.091)" fill="#69DB57"/>
<rect x="34.4546" y="8.18176" width="2.72727" height="2.72727" transform="rotate(90 34.4546 8.18176)" fill="#69DB57"/>
<rect x="37.1819" y="8.18176" width="2.72727" height="2.72727" transform="rotate(90 37.1819 8.18176)" fill="#69DB57"/>
<rect x="39.9092" y="8.18176" width="2.72727" height="2.72727" transform="rotate(90 39.9092 8.18176)" fill="#69DB57"/>
<rect x="42.6365" y="8.18176" width="2.72727" height="2.72727" transform="rotate(90 42.6365 8.18176)" fill="#69DB57"/>
<rect x="45.3635" y="8.18176" width="2.72727" height="2.72727" transform="rotate(90 45.3635 8.18176)" fill="#69DB57"/>
<rect x="48.0908" y="8.18176" width="2.72727" height="2.72727" transform="rotate(90 48.0908 8.18176)" fill="#69DB57"/>
<rect x="50.8181" y="8.18176" width="2.72727" height="2.72727" transform="rotate(90 50.8181 8.18176)" fill="#69DB57"/>
<rect x="34.4546" y="19.091" width="2.72727" height="2.72727" transform="rotate(90 34.4546 19.091)" fill="#69DB57"/>
<rect x="37.1819" y="19.091" width="2.72727" height="2.72727" transform="rotate(90 37.1819 19.091)" fill="#69DB57"/>
<rect x="39.9092" y="19.091" width="2.72727" height="2.72727" transform="rotate(90 39.9092 19.091)" fill="#69DB57"/>
<rect x="42.6365" y="19.091" width="2.72727" height="2.72727" transform="rotate(90 42.6365 19.091)" fill="#69DB57"/>
<rect x="45.3635" y="19.091" width="2.72727" height="2.72727" transform="rotate(90 45.3635 19.091)" fill="#69DB57"/>
<rect x="48.0908" y="19.091" width="2.72727" height="2.72727" transform="rotate(90 48.0908 19.091)" fill="#69DB57"/>
<rect x="50.8181" y="19.091" width="2.72727" height="2.72727" transform="rotate(90 50.8181 19.091)" fill="#69DB57"/>
<rect x="53.5454" y="8.18176" width="2.72727" height="2.72727" transform="rotate(90 53.5454 8.18176)" fill="#69DB57"/>
<rect x="37.1819" y="5.45447" width="2.72727" height="2.72727" transform="rotate(90 37.1819 5.45447)" fill="#69DB57"/>
<rect x="37.1819" y="2.72723" width="2.72727" height="2.72727" transform="rotate(90 37.1819 2.72723)" fill="#69DB57"/>
<rect x="37.1819" width="2.72727" height="2.72727" transform="rotate(90 37.1819 0)" fill="#69DB57"/>
<rect x="37.1819" y="27.2728" width="2.72727" height="2.72727" transform="rotate(90 37.1819 27.2728)" fill="#69DB57"/>
<rect x="37.1819" y="24.5455" width="2.72727" height="2.72727" transform="rotate(90 37.1819 24.5455)" fill="#69DB57"/>
<rect x="37.1819" y="21.8182" width="2.72727" height="2.72727" transform="rotate(90 37.1819 21.8182)" fill="#69DB57"/>
<rect x="39.9092" y="2.72723" width="2.72727" height="2.72727" transform="rotate(90 39.9092 2.72723)" fill="#69DB57"/>
<rect x="39.9092" y="24.5455" width="2.72727" height="2.72727" transform="rotate(90 39.9092 24.5455)" fill="#69DB57"/>
<rect x="42.6365" y="5.45447" width="2.72727" height="2.72727" transform="rotate(90 42.6365 5.45447)" fill="#69DB57"/>
<rect x="42.6365" y="21.8182" width="2.72727" height="2.72727" transform="rotate(90 42.6365 21.8182)" fill="#69DB57"/>
<rect x="31.7273" y="13.6362" width="2.72727" height="2.72727" transform="rotate(90 31.7273 13.6362)" fill="#69DB57"/>
<rect x="31.7273" y="16.3638" width="2.72727" height="2.72727" transform="rotate(90 31.7273 16.3638)" fill="#69DB57"/>
<rect x="29" y="13.6362" width="2.72727" height="2.72727" transform="rotate(90 29 13.6362)" fill="#E2F318"/>
<rect x="26.2727" y="13.6362" width="2.72727" height="2.72727" transform="rotate(90 26.2727 13.6362)" fill="#E2F318"/>
<rect x="23.5454" y="13.6362" width="2.72727" height="2.72727" transform="rotate(90 23.5454 13.6362)" fill="#E2F318"/>
<rect x="29" y="16.3638" width="2.72727" height="2.72727" transform="rotate(90 29 16.3638)" fill="#F3AE27"/>
<rect x="26.2727" y="16.3638" width="2.72727" height="2.72727" transform="rotate(90 26.2727 16.3638)" fill="#F3AE27"/>
<rect x="29" y="10.909" width="2.72727" height="2.72727" transform="rotate(90 29 10.909)" fill="#F3AE27"/>
<rect x="26.2727" y="10.909" width="2.72727" height="2.72727" transform="rotate(90 26.2727 10.909)" fill="#F3AE27"/>
<rect x="29" y="8.18176" width="2.72727" height="2.72727" transform="rotate(90 29 8.18176)" fill="#F35827"/>
<rect x="26.2727" y="8.18176" width="2.72727" height="2.72727" transform="rotate(90 26.2727 8.18176)" fill="#F35827"/>
<rect x="23.5454" y="10.909" width="2.72727" height="2.72727" transform="rotate(90 23.5454 10.909)" fill="#F35827"/>
<rect x="23.5454" y="16.3638" width="2.72727" height="2.72727" transform="rotate(90 23.5454 16.3638)" fill="#F35827"/>
<rect x="20.8181" y="13.6362" width="2.72727" height="2.72727" transform="rotate(90 20.8181 13.6362)" fill="#F35827"/>
<rect x="29" y="19.091" width="2.72727" height="2.72727" transform="rotate(90 29 19.091)" fill="#F35827"/>
<rect x="26.2727" y="19.091" width="2.72727" height="2.72727" transform="rotate(90 26.2727 19.091)" fill="#F35827"/>
<rect x="53.5454" y="10.909" width="2.72727" height="2.72727" transform="rotate(90 53.5454 10.909)" fill="#69DB57"/>
<rect x="53.5454" y="13.6362" width="2.72727" height="2.72727" transform="rotate(90 53.5454 13.6362)" fill="#69DB57"/>
<rect x="56.2727" y="10.909" width="2.72727" height="2.72727" transform="rotate(90 56.2727 10.909)" fill="#69DB57"/>
<rect x="56.2727" y="16.3638" width="2.72727" height="2.72727" transform="rotate(90 56.2727 16.3638)" fill="#69DB57"/>
<rect x="59" y="13.6362" width="2.72727" height="2.72727" transform="rotate(90 59 13.6362)" fill="#69DB57"/>
<rect x="53.5454" y="16.3638" width="2.72727" height="2.72727" transform="rotate(90 53.5454 16.3638)" fill="#69DB57"/>
<rect x="53.5454" y="19.091" width="2.72727" height="2.72727" transform="rotate(90 53.5454 19.091)" fill="#69DB57"/>
<path d="M6.65556 35.784C6.68756 35.624 6.70356 35.4053 6.70356 35.128C6.70356 34.968 6.6929 34.8133 6.67156 34.664C6.65023 34.504 6.6129 34.3653 6.55956 34.248C6.50623 34.12 6.42623 34.024 6.31956 33.96C6.2129 33.8853 6.07423 33.848 5.90356 33.848C5.71156 33.848 5.53556 33.8907 5.37556 33.976C5.21556 34.0613 5.07156 34.1733 4.94356 34.312C4.82623 34.44 4.73023 34.5947 4.65556 34.776C4.59156 34.9467 4.55956 35.128 4.55956 35.32C4.55956 35.5973 4.6289 35.8107 4.76756 35.96C4.9169 36.1093 5.1089 36.232 5.34356 36.328C5.57823 36.424 5.8449 36.504 6.14356 36.568C6.44223 36.632 6.75156 36.7067 7.07156 36.792C7.33823 36.8667 7.6049 36.9627 7.87156 37.08C8.13823 37.1973 8.3729 37.3573 8.57556 37.56C8.7889 37.752 8.95956 38.008 9.08756 38.328C9.21556 38.6373 9.27956 39.0267 9.27956 39.496C9.27956 40.168 9.14623 40.7333 8.87956 41.192C8.6129 41.6507 8.2449 42.024 7.77556 42.312C7.30623 42.6 6.74623 42.808 6.09556 42.936C5.45556 43.064 4.7569 43.128 3.99956 43.128C3.23156 43.128 2.60223 43.08 2.11156 42.984C1.63156 42.8773 1.2529 42.7653 0.975563 42.648C0.644896 42.5093 0.399563 42.3493 0.239562 42.168L0.783563 39.976H3.59956C3.5889 40.072 3.57823 40.2053 3.56756 40.376C3.5569 40.536 3.55156 40.664 3.55156 40.76C3.55156 40.888 3.56756 41.0213 3.59956 41.16C3.63156 41.2987 3.67956 41.4267 3.74356 41.544C3.81823 41.6613 3.91956 41.7573 4.04756 41.832C4.17556 41.9067 4.33556 41.944 4.52756 41.944C4.7409 41.944 4.92756 41.896 5.08756 41.8C5.25823 41.704 5.3969 41.5867 5.50356 41.448C5.6209 41.2987 5.70623 41.1387 5.75956 40.968C5.82356 40.7867 5.85556 40.6107 5.85556 40.44C5.85556 40.2053 5.7969 40.008 5.67956 39.848C5.5729 39.688 5.42356 39.5547 5.23156 39.448C5.03956 39.3307 4.81556 39.2347 4.55956 39.16C4.31423 39.0747 4.05823 38.9893 3.79156 38.904C3.53556 38.8293 3.26356 38.7387 2.97556 38.632C2.69823 38.5253 2.44223 38.376 2.20756 38.184C1.9729 37.992 1.77556 37.752 1.61556 37.464C1.46623 37.1653 1.39156 36.7867 1.39156 36.328C1.39156 35.6453 1.56223 35.0747 1.90356 34.616C2.25556 34.1467 2.6929 33.768 3.21556 33.48C3.7489 33.192 4.33023 32.9893 4.95956 32.872C5.5889 32.744 6.18623 32.68 6.75156 32.68C7.49823 32.68 8.13823 32.7707 8.67156 32.952C9.21556 33.1227 9.62623 33.3253 9.90356 33.56L9.31156 35.784H6.65556ZM14.8782 38.616C15.1982 38.616 15.4649 38.4827 15.6782 38.216C15.9022 37.9493 16.0835 37.624 16.2222 37.24C16.3715 36.856 16.4782 36.456 16.5422 36.04C16.6062 35.624 16.6382 35.2613 16.6382 34.952C16.6382 34.664 16.5902 34.424 16.4942 34.232C16.3982 34.0293 16.1902 33.928 15.8702 33.928H15.1502L14.1422 38.616H14.8782ZM13.9182 39.64L13.1982 43H9.74219L11.9022 32.84H15.5982C16.2062 32.84 16.7609 32.872 17.2622 32.936C17.7635 33 18.1955 33.128 18.5582 33.32C18.9209 33.512 19.2035 33.7893 19.4062 34.152C19.6089 34.504 19.7102 34.9787 19.7102 35.576C19.7102 36.1307 19.6195 36.6587 19.4382 37.16C19.2675 37.6507 18.9849 38.0827 18.5902 38.456C18.2062 38.8187 17.7049 39.1067 17.0862 39.32C16.4675 39.5333 15.7155 39.64 14.8302 39.64H13.9182ZM27.7937 43H24.0497L23.8257 40.456H20.8657L19.7297 43H18.1777L22.8977 32.84H26.6897L27.7937 43ZM21.3937 39.288H23.7137L23.3457 34.936L21.3937 39.288ZM37.2037 42.136C36.937 42.264 36.6597 42.392 36.3717 42.52C36.0944 42.6373 35.7957 42.744 35.4757 42.84C35.1557 42.9253 34.8037 42.9947 34.4197 43.048C34.0464 43.1013 33.6357 43.128 33.1877 43.128C31.7584 43.128 30.6544 42.808 29.8757 42.168C29.1077 41.528 28.7237 40.4613 28.7237 38.968C28.7237 38.104 28.857 37.2933 29.1237 36.536C29.3904 35.768 29.785 35.1013 30.3077 34.536C30.8304 33.96 31.4757 33.5067 32.2437 33.176C33.0117 32.8453 33.8917 32.68 34.8837 32.68C35.353 32.68 35.7797 32.712 36.1637 32.776C36.5584 32.84 36.9104 32.9253 37.2197 33.032C37.5397 33.128 37.8224 33.2347 38.0677 33.352C38.3237 33.4693 38.553 33.5813 38.7557 33.688L38.1797 36.664H35.2997C35.3104 36.5573 35.321 36.4187 35.3317 36.248C35.353 36.0773 35.369 35.9067 35.3797 35.736C35.3904 35.5547 35.401 35.3787 35.4117 35.208C35.4224 35.0373 35.4277 34.8933 35.4277 34.776C35.4277 34.6907 35.4224 34.5947 35.4117 34.488C35.401 34.3707 35.3744 34.2587 35.3317 34.152C35.289 34.0453 35.2197 33.96 35.1237 33.896C35.0384 33.8213 34.921 33.784 34.7717 33.784C34.4944 33.784 34.2384 33.9013 34.0037 34.136C33.7797 34.36 33.577 34.664 33.3957 35.048C33.2144 35.4213 33.0544 35.848 32.9157 36.328C32.777 36.808 32.6597 37.2987 32.5637 37.8C32.4784 38.2907 32.409 38.776 32.3557 39.256C32.313 39.736 32.2917 40.1573 32.2917 40.52C32.2917 40.6267 32.297 40.76 32.3077 40.92C32.3184 41.08 32.3504 41.2347 32.4037 41.384C32.457 41.5333 32.537 41.6613 32.6437 41.768C32.761 41.8747 32.9157 41.928 33.1077 41.928C33.4384 41.928 33.7584 41.7253 34.0677 41.32C34.377 40.904 34.649 40.168 34.8837 39.112H37.8437L37.2037 42.136ZM40.5584 32.84H47.2944L47.0384 34.056H43.7744L43.1024 37.144H45.8384L45.5824 38.344H42.8464L42.1104 41.768H45.3744L45.1344 43H38.3984L40.5584 32.84ZM56.2533 35.16C56.2533 35.4693 56.2053 35.7467 56.1093 35.992C56.024 36.2373 55.9013 36.456 55.7413 36.648C55.5813 36.84 55.3946 37.0107 55.1813 37.16C54.968 37.3093 54.7333 37.448 54.4773 37.576C54.5946 37.6187 54.7333 37.688 54.8933 37.784C55.0533 37.8693 55.208 37.992 55.3573 38.152C55.5066 38.312 55.6293 38.52 55.7253 38.776C55.832 39.0213 55.8853 39.3253 55.8853 39.688C55.8853 40.168 55.784 40.6107 55.5813 41.016C55.3786 41.4213 55.0746 41.7733 54.6693 42.072C54.2746 42.36 53.784 42.5893 53.1973 42.76C52.6213 42.92 51.9546 43 51.1973 43H46.4453L48.6053 32.84H52.8133C53.2293 32.84 53.64 32.872 54.0453 32.936C54.4613 32.9893 54.8293 33.1013 55.1493 33.272C55.48 33.4427 55.7466 33.6827 55.9493 33.992C56.152 34.2907 56.2533 34.68 56.2533 35.16ZM51.9013 37.096C52.136 37.096 52.3333 37.0267 52.4933 36.888C52.664 36.7493 52.8026 36.5787 52.9093 36.376C53.016 36.1627 53.096 35.9387 53.1493 35.704C53.2026 35.4587 53.2293 35.24 53.2293 35.048C53.2293 34.7387 53.1546 34.4773 53.0053 34.264C52.8666 34.04 52.6426 33.928 52.3333 33.928H51.8533L51.1653 37.096H51.9013ZM50.7493 41.992C51.0693 41.992 51.336 41.9013 51.5493 41.72C51.7626 41.5387 51.9386 41.3147 52.0773 41.048C52.216 40.7813 52.312 40.504 52.3653 40.216C52.4293 39.9173 52.4613 39.656 52.4613 39.432C52.4613 39.0587 52.3813 38.7653 52.2213 38.552C52.072 38.328 51.8266 38.216 51.4853 38.216H50.8933L50.1093 41.992H50.7493ZM64.9264 43H61.1824L59.4064 35.656L57.8384 43H56.3984L58.5584 32.84H62.3824L64.0624 40.28L65.6464 32.84H67.1184L64.9264 43ZM76.5033 35.16C76.5033 35.4693 76.4553 35.7467 76.3593 35.992C76.274 36.2373 76.1513 36.456 75.9913 36.648C75.8313 36.84 75.6446 37.0107 75.4313 37.16C75.218 37.3093 74.9833 37.448 74.7273 37.576C74.8446 37.6187 74.9833 37.688 75.1433 37.784C75.3033 37.8693 75.458 37.992 75.6073 38.152C75.7566 38.312 75.8793 38.52 75.9753 38.776C76.082 39.0213 76.1353 39.3253 76.1353 39.688C76.1353 40.168 76.034 40.6107 75.8313 41.016C75.6286 41.4213 75.3246 41.7733 74.9193 42.072C74.5246 42.36 74.034 42.5893 73.4473 42.76C72.8713 42.92 72.2046 43 71.4473 43H66.6953L68.8553 32.84H73.0633C73.4793 32.84 73.89 32.872 74.2953 32.936C74.7113 32.9893 75.0793 33.1013 75.3993 33.272C75.73 33.4427 75.9966 33.6827 76.1993 33.992C76.402 34.2907 76.5033 34.68 76.5033 35.16ZM72.1513 37.096C72.386 37.096 72.5833 37.0267 72.7433 36.888C72.914 36.7493 73.0526 36.5787 73.1593 36.376C73.266 36.1627 73.346 35.9387 73.3993 35.704C73.4526 35.4587 73.4793 35.24 73.4793 35.048C73.4793 34.7387 73.4046 34.4773 73.2553 34.264C73.1166 34.04 72.8926 33.928 72.5833 33.928H72.1033L71.4153 37.096H72.1513ZM70.9993 41.992C71.3193 41.992 71.586 41.9013 71.7993 41.72C72.0126 41.5387 72.1886 41.3147 72.3273 41.048C72.466 40.7813 72.562 40.504 72.6153 40.216C72.6793 39.9173 72.7113 39.656 72.7113 39.432C72.7113 39.0587 72.6313 38.7653 72.4713 38.552C72.322 38.328 72.0766 38.216 71.7353 38.216H71.1433L70.3593 41.992H70.9993Z" fill="white"/>
</svg>
